<svg width="549" height="100" viewBox="0 0 549 100" fill="none" xmlns="http://www.w3.org/2000/svg">
<path d="M38.0599 99.44C26.1559 99.44 16.8919 95.936 10.2679 88.928C3.73993 81.92 0.475932 71.888 0.475932 58.832V1.95199H10.8439V59.408C10.8439 69.68 13.1479 77.312 17.7559 82.304C22.3639 87.2 29.1319 89.648 38.0599 89.648C46.9879 89.648 53.8039 87.2 58.5079 82.304C63.2119 77.312 65.5639 69.68 65.5639 59.408V1.95199H75.6439V58.832C75.6439 67.568 74.1559 74.96 71.1799 81.008C68.2039 87.056 63.9319 91.664 58.3639 94.832C52.7959 97.904 46.0279 99.44 38.0599 99.44ZM156.483 98L119.619 1.95199H130.707L163.971 89.216H160.227L192.915 2.24L203.571 1.95199L166.707 98H156.483ZM284.844 99.44C275.34 99.44 267.372 97.616 260.94 93.968C254.604 90.224 249.804 84.704 246.54 77.408C243.372 70.112 241.788 60.992 241.788 50.048C241.788 33.728 245.388 21.44 252.588 13.184C259.884 4.83199 270.636 0.655992 284.844 0.655992C294.444 0.655992 302.412 2.52799 308.748 6.272C315.18 9.92 319.98 15.392 323.148 22.688C326.412 29.984 328.044 39.104 328.044 50.048C328.044 66.368 324.396 78.704 317.1 87.056C309.9 95.312 299.148 99.44 284.844 99.44ZM284.844 89.648C292.428 89.648 298.62 88.256 303.42 85.472C308.22 82.688 311.724 78.368 313.932 72.512C316.236 66.656 317.388 59.168 317.388 50.048C317.388 40.928 316.236 33.488 313.932 27.728C311.724 21.872 308.22 17.552 303.42 14.768C298.62 11.888 292.428 10.448 284.844 10.448C277.356 10.448 271.212 11.888 266.412 14.768C261.612 17.552 258.06 21.872 255.756 27.728C253.548 33.488 252.444 40.928 252.444 50.048C252.444 59.168 253.548 66.656 255.756 72.512C258.06 78.368 261.612 82.688 266.412 85.472C271.212 88.256 277.356 89.648 284.844 89.648ZM400.203 98V11.744H366.219V1.95199H444.411V11.744H410.571V98H400.203ZM488.332 98V1.95199H548.956V11.744H498.7V44.864H542.908V54.944H498.7V88.208H548.956V98H488.332Z" fill="url(#paint0_linear)"/>
<defs>
<linearGradient id="paint0_linear" x1="274" y1="-41" x2="274" y2="128" gradientUnits="userSpaceOnUse">
<stop stop-color="white"/>
<stop offset="1" stop-color="#E5E5E5"/>
</linearGradient>
</defs>
</svg>
