<svg width="721" height="734" viewBox="0 0 721 734" fill="none" xmlns="http://www.w3.org/2000/svg">
<path d="M480.225 356.977C480.225 440.294 547.771 507.832 631.08 507.832V418.305C631.08 334.988 563.542 267.45 480.225 267.45V356.977Z" fill="url(#paint0_linear)"/>
<path d="M631.08 89.8128C547.771 89.8128 480.225 157.359 480.225 240.668H569.761C653.086 240.668 720.624 173.13 720.624 89.8128H631.08Z" fill="url(#paint1_linear)"/>
<path d="M302.605 89.8128C302.605 173.13 370.134 240.668 453.46 240.668V151.132C453.46 67.8149 385.905 0.277442 302.605 0.277442V89.8128Z" fill="url(#paint2_linear)"/>
<path d="M301.731 418.305V507.136C301.731 548.875 267.89 582.708 226.168 582.708C184.437 582.708 150.605 548.875 150.605 507.136L150.478 506.831C92.2634 537.516 130.321 733.893 269.901 733.079C370.796 732.494 452.586 651.28 452.586 550.394V267.442C369.269 267.442 301.731 334.979 301.731 418.305" fill="url(#paint3_linear)"/>
<path d="M301.748 416.184L301.723 508.019C301.79 541.452 275.568 577.041 235.373 582.105C276.238 578.237 453.46 550.199 453.46 354.89V267.45C370.134 267.45 301.748 332.867 301.748 416.184V416.184ZM227.042 582.708C229.884 582.648 232.658 582.445 235.373 582.105C230.054 582.614 227.042 582.708 227.042 582.708Z" fill="url(#paint4_linear)"/>
<path d="M0.623962 550.945C0.929371 651.62 84.0685 733.401 183.309 733.079C186.397 733.07 193.812 733.087 203.288 733.104C221.494 733.13 247.351 733.155 265.057 733.028C265.057 733.028 274.736 733.045 277.867 732.867C277.867 732.867 274.77 732.612 265.718 731.272C143.216 713.041 151.479 507.144 151.479 507.144V196.222C151.479 112.896 83.941 45.3504 0.623962 45.3504V550.945Z" fill="url(#paint5_linear)"/>
<defs>
<linearGradient id="paint0_linear" x1="416.233" y1="198.783" x2="621.289" y2="476.54" gradientUnits="userSpaceOnUse">
<stop stop-color="#00D47E"/>
<stop offset="0.352768" stop-color="#00D47E"/>
<stop offset="1" stop-color="#2ADEFF"/>
</linearGradient>
<linearGradient id="paint1_linear" x1="365.691" y1="471.834" x2="687.685" y2="51.27" gradientUnits="userSpaceOnUse">
<stop stop-color="#00BC7E"/>
<stop offset="0.151" stop-color="#00BC7E"/>
<stop offset="0.217791" stop-color="#00BC7F"/>
<stop offset="0.686405" stop-color="#00BC7F"/>
<stop offset="1" stop-color="#2ADEFF"/>
</linearGradient>
<linearGradient id="paint2_linear" x1="484.649" y1="323.398" x2="211.68" y2="-196.124" gradientUnits="userSpaceOnUse">
<stop stop-color="#00BC7E"/>
<stop offset="0.005" stop-color="#00BC7E"/>
<stop offset="0.310321" stop-color="#00BC7E"/>
<stop offset="1" stop-color="#2ADEFF"/>
</linearGradient>
<linearGradient id="paint3_linear" x1="140" y1="42.6183" x2="413.833" y2="764.901" gradientUnits="userSpaceOnUse">
<stop stop-color="#90145A"/>
<stop offset="0.458333" stop-color="#90145A"/>
<stop offset="1" stop-color="#2ADEFF"/>
</linearGradient>
<linearGradient id="paint4_linear" x1="159.22" y1="76.6762" x2="370.043" y2="482.412" gradientUnits="userSpaceOnUse">
<stop stop-color="#90145A"/>
<stop offset="0.3125" stop-color="#90145A"/>
<stop offset="1" stop-color="#2ADEFF"/>
</linearGradient>
<linearGradient id="paint5_linear" x1="-48.7091" y1="58.1007" x2="354.193" y2="1085.1" gradientUnits="userSpaceOnUse">
<stop stop-color="#11CDEF"/>
<stop offset="1" stop-color="#1171EF"/>
</linearGradient>
</defs>
</svg>
